<svg xmlns="http://www.w3.org/2000/svg" width="1200" height="560" viewBox="0 0 1200 560" font-family="Liberation Sans, Arial, DejaVu Sans, sans-serif">
<defs>
  <linearGradient id="skyGrad" x1="0" y1="0" x2="0" y2="1">
    <stop offset="0" stop-color="#DCE9F0"/><stop offset="1" stop-color="#B4D0DF"/>
  </linearGradient>
  <linearGradient id="nightGrad" x1="0" y1="0" x2="0" y2="1">
    <stop offset="0" stop-color="#2E3B52"/><stop offset="0.6" stop-color="#42536E"/><stop offset="1" stop-color="#5A6A85"/>
  </linearGradient>
  <linearGradient id="dawnGrad" x1="0" y1="0" x2="0" y2="1">
    <stop offset="0" stop-color="#EBD9C2"/><stop offset="0.45" stop-color="#EFCDA4"/><stop offset="1" stop-color="#D9E2E4"/>
  </linearGradient>
  <linearGradient id="seaGrad" x1="0" y1="0" x2="0" y2="1">
    <stop offset="0" stop-color="#6E9FBB"/><stop offset="1" stop-color="#456F8C"/>
  </linearGradient>
  <linearGradient id="earthGrad" x1="0" y1="0" x2="0" y2="1">
    <stop offset="0" stop-color="#C98A66"/><stop offset="1" stop-color="#9A5A40"/>
  </linearGradient>
  <linearGradient id="dryGrad" x1="0" y1="0" x2="0" y2="1">
    <stop offset="0" stop-color="#E0C79C"/><stop offset="1" stop-color="#A96A4B"/>
  </linearGradient>
  <linearGradient id="paperGrad" x1="0" y1="0" x2="0" y2="1">
    <stop offset="0" stop-color="#FBF8F2"/><stop offset="1" stop-color="#EAE2D2"/>
  </linearGradient>
  <radialGradient id="glow" cx="0.5" cy="0.5" r="0.5">
    <stop offset="0" stop-color="#FFF3D0" stop-opacity="0.95"/>
    <stop offset="0.55" stop-color="#FFE7A8" stop-opacity="0.45"/>
    <stop offset="1" stop-color="#FFE7A8" stop-opacity="0"/>
  </radialGradient>
  <radialGradient id="moonGlow" cx="0.5" cy="0.5" r="0.5">
    <stop offset="0" stop-color="#F4F0E2" stop-opacity="0.85"/>
    <stop offset="0.5" stop-color="#E4E8E2" stop-opacity="0.30"/>
    <stop offset="1" stop-color="#E4E8E2" stop-opacity="0"/>
  </radialGradient>
  <linearGradient id="silver" x1="0" y1="0" x2="0" y2="1">
    <stop offset="0" stop-color="#EFEFE6"/><stop offset="1" stop-color="#C4C8C2"/>
  </linearGradient>
  <filter id="soft" x="-25%" y="-25%" width="150%" height="150%">
    <feGaussianBlur stdDeviation="7"/>
  </filter>
  <filter id="soft2" x="-25%" y="-25%" width="150%" height="150%">
    <feGaussianBlur stdDeviation="2.5"/>
  </filter>
  <filter id="blurFast" x="-25%" y="-25%" width="150%" height="150%">
    <feGaussianBlur stdDeviation="6.5"/>
  </filter>

  <linearGradient id="rainSky" x1="0" y1="0" x2="0" y2="1">
    <stop offset="0" stop-color="#9FB2C0"/><stop offset="0.55" stop-color="#BCC9D2"/><stop offset="1" stop-color="#D5DCE0"/>
  </linearGradient>
  <linearGradient id="roofG" x1="0" y1="0" x2="0" y2="1">
    <stop offset="0" stop-color="#B4674C"/><stop offset="1" stop-color="#8E4E38"/>
  </linearGradient>
  <linearGradient id="wetG" x1="0" y1="0" x2="0" y2="1">
    <stop offset="0" stop-color="#8FA3B0"/><stop offset="1" stop-color="#6E8494"/>
  </linearGradient>
  <linearGradient id="winG" x1="0" y1="0" x2="0" y2="1">
    <stop offset="0" stop-color="#FBE0A4"/><stop offset="1" stop-color="#E9BE66"/>
  </linearGradient>

</defs>
<clipPath id="frameClip"><rect x="5" y="5" width="1190" height="550" rx="24" ry="24"/></clipPath>
<rect width="1200" height="560" rx="28" ry="28" fill="#BCC9D2"/>
<g clip-path="url(#frameClip)">
<rect width="1200" height="560" fill="url(#rainSky)"/>
<g transform="translate(180,80) scale(1.25)" opacity="0.55"><ellipse cx="0" cy="0" rx="120" ry="38" fill="#8FA3B4"/><ellipse cx="-52" cy="-14" rx="62" ry="34" fill="#8FA3B4"/><ellipse cx="44" cy="-20" rx="72" ry="38" fill="#9DB0BF"/></g>
<g transform="translate(520,52) scale(1.0)" opacity="0.42"><ellipse cx="0" cy="0" rx="120" ry="38" fill="#8FA3B4"/><ellipse cx="-52" cy="-14" rx="62" ry="34" fill="#8FA3B4"/><ellipse cx="44" cy="-20" rx="72" ry="38" fill="#9DB0BF"/></g>
<g transform="translate(880,92) scale(1.4)" opacity="0.5"><ellipse cx="0" cy="0" rx="120" ry="38" fill="#8FA3B4"/><ellipse cx="-52" cy="-14" rx="62" ry="34" fill="#8FA3B4"/><ellipse cx="44" cy="-20" rx="72" ry="38" fill="#9DB0BF"/></g>
<g transform="translate(1120,60) scale(0.9)" opacity="0.38"><ellipse cx="0" cy="0" rx="120" ry="38" fill="#8FA3B4"/><ellipse cx="-52" cy="-14" rx="62" ry="34" fill="#8FA3B4"/><ellipse cx="44" cy="-20" rx="72" ry="38" fill="#9DB0BF"/></g>
<rect x="-20" y="300" width="120" height="180" rx="6" fill="#93A6B4" opacity="0.55"/>
<rect x="-4.0" y="322" width="14" height="18" rx="3" fill="#B7C6D0" opacity="0.7"/>
<rect x="25.333333333333332" y="322" width="14" height="18" rx="3" fill="#B7C6D0" opacity="0.7"/>
<rect x="54.666666666666664" y="322" width="14" height="18" rx="3" fill="#B7C6D0" opacity="0.7"/>
<rect x="-4.0" y="356" width="14" height="18" rx="3" fill="#B7C6D0" opacity="0.7"/>
<rect x="25.333333333333332" y="356" width="14" height="18" rx="3" fill="#B7C6D0" opacity="0.7"/>
<rect x="54.666666666666664" y="356" width="14" height="18" rx="3" fill="#B7C6D0" opacity="0.7"/>
<rect x="-4.0" y="390" width="14" height="18" rx="3" fill="#B7C6D0" opacity="0.7"/>
<rect x="25.333333333333332" y="390" width="14" height="18" rx="3" fill="#B7C6D0" opacity="0.7"/>
<rect x="54.666666666666664" y="390" width="14" height="18" rx="3" fill="#B7C6D0" opacity="0.7"/>
<rect x="110" y="268" width="86" height="212" rx="6" fill="#93A6B4" opacity="0.55"/>
<rect x="126.0" y="290" width="14" height="18" rx="3" fill="#B7C6D0" opacity="0.7"/>
<rect x="144.0" y="290" width="14" height="18" rx="3" fill="#B7C6D0" opacity="0.7"/>
<rect x="162.0" y="290" width="14" height="18" rx="3" fill="#B7C6D0" opacity="0.7"/>
<rect x="126.0" y="324" width="14" height="18" rx="3" fill="#B7C6D0" opacity="0.7"/>
<rect x="144.0" y="324" width="14" height="18" rx="3" fill="#B7C6D0" opacity="0.7"/>
<rect x="162.0" y="324" width="14" height="18" rx="3" fill="#B7C6D0" opacity="0.7"/>
<rect x="126.0" y="358" width="14" height="18" rx="3" fill="#B7C6D0" opacity="0.7"/>
<rect x="144.0" y="358" width="14" height="18" rx="3" fill="#B7C6D0" opacity="0.7"/>
<rect x="162.0" y="358" width="14" height="18" rx="3" fill="#B7C6D0" opacity="0.7"/>
<rect x="206" y="320" width="104" height="160" rx="6" fill="#93A6B4" opacity="0.55"/>
<rect x="222.0" y="342" width="14" height="18" rx="3" fill="#B7C6D0" opacity="0.7"/>
<rect x="246.0" y="342" width="14" height="18" rx="3" fill="#B7C6D0" opacity="0.7"/>
<rect x="270.0" y="342" width="14" height="18" rx="3" fill="#B7C6D0" opacity="0.7"/>
<rect x="222.0" y="376" width="14" height="18" rx="3" fill="#B7C6D0" opacity="0.7"/>
<rect x="246.0" y="376" width="14" height="18" rx="3" fill="#B7C6D0" opacity="0.7"/>
<rect x="270.0" y="376" width="14" height="18" rx="3" fill="#B7C6D0" opacity="0.7"/>
<rect x="222.0" y="410" width="14" height="18" rx="3" fill="#B7C6D0" opacity="0.7"/>
<rect x="246.0" y="410" width="14" height="18" rx="3" fill="#B7C6D0" opacity="0.7"/>
<rect x="270.0" y="410" width="14" height="18" rx="3" fill="#B7C6D0" opacity="0.7"/>
<rect x="320" y="282" width="92" height="198" rx="6" fill="#93A6B4" opacity="0.55"/>
<rect x="336.0" y="304" width="14" height="18" rx="3" fill="#B7C6D0" opacity="0.7"/>
<rect x="356.0" y="304" width="14" height="18" rx="3" fill="#B7C6D0" opacity="0.7"/>
<rect x="376.0" y="304" width="14" height="18" rx="3" fill="#B7C6D0" opacity="0.7"/>
<rect x="336.0" y="338" width="14" height="18" rx="3" fill="#B7C6D0" opacity="0.7"/>
<rect x="356.0" y="338" width="14" height="18" rx="3" fill="#B7C6D0" opacity="0.7"/>
<rect x="376.0" y="338" width="14" height="18" rx="3" fill="#B7C6D0" opacity="0.7"/>
<rect x="336.0" y="372" width="14" height="18" rx="3" fill="#B7C6D0" opacity="0.7"/>
<rect x="356.0" y="372" width="14" height="18" rx="3" fill="#B7C6D0" opacity="0.7"/>
<rect x="376.0" y="372" width="14" height="18" rx="3" fill="#B7C6D0" opacity="0.7"/>
<rect x="700" y="296" width="110" height="184" rx="6" fill="#93A6B4" opacity="0.55"/>
<rect x="716.0" y="318" width="14" height="18" rx="3" fill="#B7C6D0" opacity="0.7"/>
<rect x="742.0" y="318" width="14" height="18" rx="3" fill="#B7C6D0" opacity="0.7"/>
<rect x="768.0" y="318" width="14" height="18" rx="3" fill="#B7C6D0" opacity="0.7"/>
<rect x="716.0" y="352" width="14" height="18" rx="3" fill="#B7C6D0" opacity="0.7"/>
<rect x="742.0" y="352" width="14" height="18" rx="3" fill="#B7C6D0" opacity="0.7"/>
<rect x="768.0" y="352" width="14" height="18" rx="3" fill="#B7C6D0" opacity="0.7"/>
<rect x="716.0" y="386" width="14" height="18" rx="3" fill="#B7C6D0" opacity="0.7"/>
<rect x="742.0" y="386" width="14" height="18" rx="3" fill="#B7C6D0" opacity="0.7"/>
<rect x="768.0" y="386" width="14" height="18" rx="3" fill="#B7C6D0" opacity="0.7"/>
<rect x="820" y="262" width="96" height="218" rx="6" fill="#93A6B4" opacity="0.55"/>
<rect x="836.0" y="284" width="14" height="18" rx="3" fill="#B7C6D0" opacity="0.7"/>
<rect x="857.3333333333334" y="284" width="14" height="18" rx="3" fill="#B7C6D0" opacity="0.7"/>
<rect x="878.6666666666666" y="284" width="14" height="18" rx="3" fill="#B7C6D0" opacity="0.7"/>
<rect x="836.0" y="318" width="14" height="18" rx="3" fill="#B7C6D0" opacity="0.7"/>
<rect x="857.3333333333334" y="318" width="14" height="18" rx="3" fill="#B7C6D0" opacity="0.7"/>
<rect x="878.6666666666666" y="318" width="14" height="18" rx="3" fill="#B7C6D0" opacity="0.7"/>
<rect x="836.0" y="352" width="14" height="18" rx="3" fill="#B7C6D0" opacity="0.7"/>
<rect x="857.3333333333334" y="352" width="14" height="18" rx="3" fill="#B7C6D0" opacity="0.7"/>
<rect x="878.6666666666666" y="352" width="14" height="18" rx="3" fill="#B7C6D0" opacity="0.7"/>
<rect x="926" y="318" width="120" height="162" rx="6" fill="#93A6B4" opacity="0.55"/>
<rect x="942.0" y="340" width="14" height="18" rx="3" fill="#B7C6D0" opacity="0.7"/>
<rect x="971.3333333333334" y="340" width="14" height="18" rx="3" fill="#B7C6D0" opacity="0.7"/>
<rect x="1000.6666666666666" y="340" width="14" height="18" rx="3" fill="#B7C6D0" opacity="0.7"/>
<rect x="942.0" y="374" width="14" height="18" rx="3" fill="#B7C6D0" opacity="0.7"/>
<rect x="971.3333333333334" y="374" width="14" height="18" rx="3" fill="#B7C6D0" opacity="0.7"/>
<rect x="1000.6666666666666" y="374" width="14" height="18" rx="3" fill="#B7C6D0" opacity="0.7"/>
<rect x="942.0" y="408" width="14" height="18" rx="3" fill="#B7C6D0" opacity="0.7"/>
<rect x="971.3333333333334" y="408" width="14" height="18" rx="3" fill="#B7C6D0" opacity="0.7"/>
<rect x="1000.6666666666666" y="408" width="14" height="18" rx="3" fill="#B7C6D0" opacity="0.7"/>
<rect x="1056" y="280" width="100" height="200" rx="6" fill="#93A6B4" opacity="0.55"/>
<rect x="1072.0" y="302" width="14" height="18" rx="3" fill="#B7C6D0" opacity="0.7"/>
<rect x="1094.6666666666667" y="302" width="14" height="18" rx="3" fill="#B7C6D0" opacity="0.7"/>
<rect x="1117.3333333333333" y="302" width="14" height="18" rx="3" fill="#B7C6D0" opacity="0.7"/>
<rect x="1072.0" y="336" width="14" height="18" rx="3" fill="#B7C6D0" opacity="0.7"/>
<rect x="1094.6666666666667" y="336" width="14" height="18" rx="3" fill="#B7C6D0" opacity="0.7"/>
<rect x="1117.3333333333333" y="336" width="14" height="18" rx="3" fill="#B7C6D0" opacity="0.7"/>
<rect x="1072.0" y="370" width="14" height="18" rx="3" fill="#B7C6D0" opacity="0.7"/>
<rect x="1094.6666666666667" y="370" width="14" height="18" rx="3" fill="#B7C6D0" opacity="0.7"/>
<rect x="1117.3333333333333" y="370" width="14" height="18" rx="3" fill="#B7C6D0" opacity="0.7"/>
<rect x="1156" y="310" width="90" height="170" rx="6" fill="#93A6B4" opacity="0.55"/>
<rect x="1172.0" y="332" width="14" height="18" rx="3" fill="#B7C6D0" opacity="0.7"/>
<rect x="1191.3333333333333" y="332" width="14" height="18" rx="3" fill="#B7C6D0" opacity="0.7"/>
<rect x="1210.6666666666667" y="332" width="14" height="18" rx="3" fill="#B7C6D0" opacity="0.7"/>
<rect x="1172.0" y="366" width="14" height="18" rx="3" fill="#B7C6D0" opacity="0.7"/>
<rect x="1191.3333333333333" y="366" width="14" height="18" rx="3" fill="#B7C6D0" opacity="0.7"/>
<rect x="1210.6666666666667" y="366" width="14" height="18" rx="3" fill="#B7C6D0" opacity="0.7"/>
<rect x="1172.0" y="400" width="14" height="18" rx="3" fill="#B7C6D0" opacity="0.7"/>
<rect x="1191.3333333333333" y="400" width="14" height="18" rx="3" fill="#B7C6D0" opacity="0.7"/>
<rect x="1210.6666666666667" y="400" width="14" height="18" rx="3" fill="#B7C6D0" opacity="0.7"/>
<rect x="60" y="330" width="150" height="150" rx="6" fill="#7C8F9E" opacity="0.75"/>
<rect x="250" y="352" width="130" height="128" rx="6" fill="#7C8F9E" opacity="0.75"/>
<rect x="880" y="340" width="150" height="140" rx="6" fill="#7C8F9E" opacity="0.75"/>
<rect x="1040" y="360" width="140" height="120" rx="6" fill="#7C8F9E" opacity="0.75"/>
<g>
<rect x="400" y="320" width="400" height="200" rx="8" fill="#E6D9C2"/>
<rect x="400" y="320" width="400" height="200" rx="8" fill="#D5C5AB" opacity="0.5" clip-path="none" transform="translate(0,0)" style="mix-blend-mode:normal"/>
<rect x="400" y="320" width="400" height="200" rx="8" fill="#EDE2CD"/>
<rect x="700" y="320" width="100" height="200" fill="#DCCDB4" opacity="0.75"/>
<path d="M 354 328 L 600 212 L 846 328 Z" fill="url(#roofG)"/>
<path d="M 600 212 L 846 328 L 600 328 Z" fill="#7E4531" opacity="0.35"/>
<line x1="403" y1="305" x2="797" y2="305" stroke="#7E4531" stroke-width="3" opacity="0.35"/>
<line x1="452" y1="282" x2="748" y2="282" stroke="#7E4531" stroke-width="3" opacity="0.35"/>
<line x1="502" y1="258" x2="698" y2="258" stroke="#7E4531" stroke-width="3" opacity="0.35"/>
<line x1="551" y1="235" x2="649" y2="235" stroke="#7E4531" stroke-width="3" opacity="0.35"/>
<rect x="348" y="322" width="504" height="16" rx="8" fill="#7E4531"/>
<rect x="696" y="224" width="46" height="72" rx="6" fill="#A55E44"/>
<rect x="688" y="212" width="62" height="18" rx="6" fill="#8E4E38"/>
<rect x="456" y="362" width="120" height="104" rx="8" fill="#FBE0A4" stroke="#A98A55" stroke-width="5"/>
<line x1="516" y1="362" x2="516" y2="466" stroke="#A98A55" stroke-width="5"/>
<line x1="456" y1="414" x2="576" y2="414" stroke="#A98A55" stroke-width="5"/>
<ellipse cx="516" cy="414" rx="130" ry="110" fill="url(#glow)" opacity="0.55"/>
<rect x="630" y="400" width="86" height="120" rx="6" fill="#8E6A4E"/>
<rect x="638" y="410" width="70" height="46" rx="4" fill="#7A5A42"/>
<circle cx="702" cy="462" r="6" fill="#E0C07A"/>
</g>
<g><rect x="920" y="240" width="12" height="220" rx="6" fill="#6B6355"/><path d="M 926 244 q 0 -30 34 -30" stroke="#6B6355" stroke-width="12" fill="none" stroke-linecap="round"/><ellipse cx="962" cy="228" rx="26" ry="18" fill="#F0DCA8" stroke="#6B6355" stroke-width="5"/><ellipse cx="962" cy="250" rx="90" ry="70" fill="url(#glow)" opacity="0.5"/></g>
<rect x="0" y="440" width="1200" height="120" fill="url(#wetG)"/>
<rect x="0" y="436" width="1200" height="12" rx="6" fill="#5F7484" opacity="0.6"/>
<rect x="457" y="444" width="118" height="116" fill="#F2D69A" opacity="0.35"/>
<rect x="932" y="444" width="60" height="116" fill="#F0DCA8" opacity="0.3"/>
<rect x="635" y="444" width="70" height="116" fill="#C9B294" opacity="0.18"/>
<ellipse cx="200" cy="500" rx="96" ry="29" fill="#7C93A3" opacity="0.85"/>
<ellipse cx="200" cy="500" rx="69" ry="21" fill="none" stroke="#CBD9E1" stroke-width="3.5" opacity="0.50"/>
<ellipse cx="200" cy="500" rx="46" ry="14" fill="none" stroke="#CBD9E1" stroke-width="3.5" opacity="0.58"/>
<ellipse cx="200" cy="500" rx="25" ry="7" fill="none" stroke="#CBD9E1" stroke-width="3.5" opacity="0.66"/>
<circle cx="200" cy="500" r="5" fill="#E4EDF2" opacity="0.9"/>
<ellipse cx="560" cy="522" rx="120" ry="36" fill="#7C93A3" opacity="0.85"/>
<ellipse cx="560" cy="522" rx="86" ry="26" fill="none" stroke="#CBD9E1" stroke-width="3.5" opacity="0.50"/>
<ellipse cx="560" cy="522" rx="58" ry="17" fill="none" stroke="#CBD9E1" stroke-width="3.5" opacity="0.58"/>
<ellipse cx="560" cy="522" rx="31" ry="9" fill="none" stroke="#CBD9E1" stroke-width="3.5" opacity="0.66"/>
<circle cx="560" cy="522" r="5" fill="#E4EDF2" opacity="0.9"/>
<ellipse cx="900" cy="494" rx="84" ry="25" fill="#7C93A3" opacity="0.85"/>
<ellipse cx="900" cy="494" rx="60" ry="18" fill="none" stroke="#CBD9E1" stroke-width="3.5" opacity="0.50"/>
<ellipse cx="900" cy="494" rx="40" ry="12" fill="none" stroke="#CBD9E1" stroke-width="3.5" opacity="0.58"/>
<ellipse cx="900" cy="494" rx="22" ry="7" fill="none" stroke="#CBD9E1" stroke-width="3.5" opacity="0.66"/>
<circle cx="900" cy="494" r="5" fill="#E4EDF2" opacity="0.9"/>
<ellipse cx="1080" cy="528" rx="104" ry="31" fill="#7C93A3" opacity="0.85"/>
<ellipse cx="1080" cy="528" rx="75" ry="22" fill="none" stroke="#CBD9E1" stroke-width="3.5" opacity="0.50"/>
<ellipse cx="1080" cy="528" rx="50" ry="15" fill="none" stroke="#CBD9E1" stroke-width="3.5" opacity="0.58"/>
<ellipse cx="1080" cy="528" rx="27" ry="8" fill="none" stroke="#CBD9E1" stroke-width="3.5" opacity="0.66"/>
<circle cx="1080" cy="528" r="5" fill="#E4EDF2" opacity="0.9"/>
<ellipse cx="370" cy="540" rx="80" ry="24" fill="#7C93A3" opacity="0.85"/>
<ellipse cx="370" cy="540" rx="58" ry="17" fill="none" stroke="#CBD9E1" stroke-width="3.5" opacity="0.50"/>
<ellipse cx="370" cy="540" rx="38" ry="12" fill="none" stroke="#CBD9E1" stroke-width="3.5" opacity="0.58"/>
<ellipse cx="370" cy="540" rx="21" ry="6" fill="none" stroke="#CBD9E1" stroke-width="3.5" opacity="0.66"/>
<circle cx="370" cy="540" r="5" fill="#E4EDF2" opacity="0.9"/>
<line x1="537" y1="296" x2="525" y2="326" stroke="#C6D5DE" stroke-width="3" stroke-linecap="round" opacity="0.35"/><line x1="1160" y1="239" x2="1147" y2="269" stroke="#C6D5DE" stroke-width="3" stroke-linecap="round" opacity="0.35"/><line x1="610" y1="312" x2="598" y2="342" stroke="#C6D5DE" stroke-width="3" stroke-linecap="round" opacity="0.35"/><line x1="184" y1="267" x2="171" y2="297" stroke="#C6D5DE" stroke-width="3" stroke-linecap="round" opacity="0.35"/><line x1="771" y1="436" x2="759" y2="466" stroke="#C6D5DE" stroke-width="3" stroke-linecap="round" opacity="0.35"/><line x1="64" y1="142" x2="52" y2="172" stroke="#C6D5DE" stroke-width="3" stroke-linecap="round" opacity="0.35"/><line x1="60" y1="446" x2="47" y2="476" stroke="#C6D5DE" stroke-width="3" stroke-linecap="round" opacity="0.35"/><line x1="855" y1="-15" x2="843" y2="15" stroke="#C6D5DE" stroke-width="3" stroke-linecap="round" opacity="0.35"/><line x1="1236" y1="539" x2="1224" y2="569" stroke="#C6D5DE" stroke-width="3" stroke-linecap="round" opacity="0.35"/><line x1="803" y1="329" x2="791" y2="359" stroke="#C6D5DE" stroke-width="3" stroke-linecap="round" opacity="0.35"/><line x1="148" y1="-31" x2="135" y2="-1" stroke="#C6D5DE" stroke-width="3" stroke-linecap="round" opacity="0.35"/><line x1="637" y1="-4" x2="625" y2="26" stroke="#C6D5DE" stroke-width="3" stroke-linecap="round" opacity="0.35"/><line x1="191" y1="105" x2="178" y2="135" stroke="#C6D5DE" stroke-width="3" stroke-linecap="round" opacity="0.35"/><line x1="-20" y1="238" x2="-33" y2="268" stroke="#C6D5DE" stroke-width="3" stroke-linecap="round" opacity="0.35"/><line x1="522" y1="465" x2="509" y2="495" stroke="#C6D5DE" stroke-width="3" stroke-linecap="round" opacity="0.35"/><line x1="625" y1="344" x2="613" y2="374" stroke="#C6D5DE" stroke-width="3" stroke-linecap="round" opacity="0.35"/><line x1="600" y1="357" x2="587" y2="387" stroke="#C6D5DE" stroke-width="3" stroke-linecap="round" opacity="0.35"/><line x1="544" y1="127" x2="531" y2="157" stroke="#C6D5DE" stroke-width="3" stroke-linecap="round" opacity="0.35"/><line x1="1257" y1="557" x2="1244" y2="587" stroke="#C6D5DE" stroke-width="3" stroke-linecap="round" opacity="0.35"/><line x1="1049" y1="385" x2="1036" y2="415" stroke="#C6D5DE" stroke-width="3" stroke-linecap="round" opacity="0.35"/><line x1="356" y1="98" x2="344" y2="128" stroke="#C6D5DE" stroke-width="3" stroke-linecap="round" opacity="0.35"/><line x1="322" y1="2" x2="309" y2="32" stroke="#C6D5DE" stroke-width="3" stroke-linecap="round" opacity="0.35"/><line x1="952" y1="200" x2="939" y2="230" stroke="#C6D5DE" stroke-width="3" stroke-linecap="round" opacity="0.35"/><line x1="1057" y1="192" x2="1045" y2="222" stroke="#C6D5DE" stroke-width="3" stroke-linecap="round" opacity="0.35"/><line x1="1205" y1="468" x2="1192" y2="498" stroke="#C6D5DE" stroke-width="3" stroke-linecap="round" opacity="0.35"/><line x1="-59" y1="86" x2="-72" y2="116" stroke="#C6D5DE" stroke-width="3" stroke-linecap="round" opacity="0.35"/><line x1="1142" y1="242" x2="1129" y2="272" stroke="#C6D5DE" stroke-width="3" stroke-linecap="round" opacity="0.35"/><line x1="1234" y1="198" x2="1221" y2="228" stroke="#C6D5DE" stroke-width="3" stroke-linecap="round" opacity="0.35"/><line x1="36" y1="338" x2="24" y2="368" stroke="#C6D5DE" stroke-width="3" stroke-linecap="round" opacity="0.35"/><line x1="968" y1="122" x2="955" y2="152" stroke="#C6D5DE" stroke-width="3" stroke-linecap="round" opacity="0.35"/><line x1="55" y1="160" x2="42" y2="190" stroke="#C6D5DE" stroke-width="3" stroke-linecap="round" opacity="0.35"/><line x1="1213" y1="415" x2="1200" y2="445" stroke="#C6D5DE" stroke-width="3" stroke-linecap="round" opacity="0.35"/><line x1="96" y1="108" x2="83" y2="138" stroke="#C6D5DE" stroke-width="3" stroke-linecap="round" opacity="0.35"/><line x1="73" y1="-4" x2="61" y2="26" stroke="#C6D5DE" stroke-width="3" stroke-linecap="round" opacity="0.35"/><line x1="992" y1="67" x2="979" y2="97" stroke="#C6D5DE" stroke-width="3" stroke-linecap="round" opacity="0.35"/><line x1="678" y1="228" x2="666" y2="258" stroke="#C6D5DE" stroke-width="3" stroke-linecap="round" opacity="0.35"/><line x1="192" y1="399" x2="179" y2="429" stroke="#C6D5DE" stroke-width="3" stroke-linecap="round" opacity="0.35"/><line x1="113" y1="346" x2="100" y2="376" stroke="#C6D5DE" stroke-width="3" stroke-linecap="round" opacity="0.35"/><line x1="94" y1="212" x2="81" y2="242" stroke="#C6D5DE" stroke-width="3" stroke-linecap="round" opacity="0.35"/><line x1="221" y1="122" x2="208" y2="152" stroke="#C6D5DE" stroke-width="3" stroke-linecap="round" opacity="0.35"/><line x1="1222" y1="442" x2="1209" y2="472" stroke="#C6D5DE" stroke-width="3" stroke-linecap="round" opacity="0.35"/><line x1="341" y1="491" x2="329" y2="521" stroke="#C6D5DE" stroke-width="3" stroke-linecap="round" opacity="0.35"/><line x1="218" y1="197" x2="206" y2="227" stroke="#C6D5DE" stroke-width="3" stroke-linecap="round" opacity="0.35"/><line x1="1068" y1="345" x2="1055" y2="375" stroke="#C6D5DE" stroke-width="3" stroke-linecap="round" opacity="0.35"/><line x1="72" y1="554" x2="60" y2="584" stroke="#C6D5DE" stroke-width="3" stroke-linecap="round" opacity="0.35"/><line x1="221" y1="115" x2="209" y2="145" stroke="#C6D5DE" stroke-width="3" stroke-linecap="round" opacity="0.35"/><line x1="960" y1="157" x2="947" y2="187" stroke="#C6D5DE" stroke-width="3" stroke-linecap="round" opacity="0.35"/><line x1="331" y1="4" x2="319" y2="34" stroke="#C6D5DE" stroke-width="3" stroke-linecap="round" opacity="0.35"/><line x1="59" y1="310" x2="46" y2="340" stroke="#C6D5DE" stroke-width="3" stroke-linecap="round" opacity="0.35"/><line x1="261" y1="321" x2="248" y2="351" stroke="#C6D5DE" stroke-width="3" stroke-linecap="round" opacity="0.35"/><line x1="431" y1="232" x2="418" y2="262" stroke="#C6D5DE" stroke-width="3" stroke-linecap="round" opacity="0.35"/><line x1="1206" y1="250" x2="1193" y2="280" stroke="#C6D5DE" stroke-width="3" stroke-linecap="round" opacity="0.35"/><line x1="698" y1="480" x2="686" y2="510" stroke="#C6D5DE" stroke-width="3" stroke-linecap="round" opacity="0.35"/><line x1="181" y1="52" x2="169" y2="82" stroke="#C6D5DE" stroke-width="3" stroke-linecap="round" opacity="0.35"/><line x1="1139" y1="451" x2="1127" y2="481" stroke="#C6D5DE" stroke-width="3" stroke-linecap="round" opacity="0.35"/><line x1="269" y1="74" x2="257" y2="104" stroke="#C6D5DE" stroke-width="3" stroke-linecap="round" opacity="0.35"/><line x1="916" y1="524" x2="903" y2="554" stroke="#C6D5DE" stroke-width="3" stroke-linecap="round" opacity="0.35"/><line x1="199" y1="530" x2="187" y2="560" stroke="#C6D5DE" stroke-width="3" stroke-linecap="round" opacity="0.35"/><line x1="1104" y1="322" x2="1092" y2="352" stroke="#C6D5DE" stroke-width="3" stroke-linecap="round" opacity="0.35"/><line x1="496" y1="22" x2="484" y2="52" stroke="#C6D5DE" stroke-width="3" stroke-linecap="round" opacity="0.35"/><line x1="-9" y1="538" x2="-22" y2="568" stroke="#C6D5DE" stroke-width="3" stroke-linecap="round" opacity="0.35"/><line x1="255" y1="383" x2="242" y2="413" stroke="#C6D5DE" stroke-width="3" stroke-linecap="round" opacity="0.35"/><line x1="279" y1="454" x2="267" y2="484" stroke="#C6D5DE" stroke-width="3" stroke-linecap="round" opacity="0.35"/><line x1="727" y1="136" x2="715" y2="166" stroke="#C6D5DE" stroke-width="3" stroke-linecap="round" opacity="0.35"/><line x1="172" y1="392" x2="159" y2="422" stroke="#C6D5DE" stroke-width="3" stroke-linecap="round" opacity="0.35"/><line x1="31" y1="97" x2="18" y2="127" stroke="#C6D5DE" stroke-width="3" stroke-linecap="round" opacity="0.35"/><line x1="678" y1="471" x2="666" y2="501" stroke="#C6D5DE" stroke-width="3" stroke-linecap="round" opacity="0.35"/><line x1="751" y1="128" x2="738" y2="158" stroke="#C6D5DE" stroke-width="3" stroke-linecap="round" opacity="0.35"/><line x1="1151" y1="82" x2="1138" y2="112" stroke="#C6D5DE" stroke-width="3" stroke-linecap="round" opacity="0.35"/><line x1="-38" y1="122" x2="-51" y2="152" stroke="#C6D5DE" stroke-width="3" stroke-linecap="round" opacity="0.35"/><line x1="528" y1="-4" x2="516" y2="26" stroke="#C6D5DE" stroke-width="3" stroke-linecap="round" opacity="0.35"/><line x1="173" y1="181" x2="160" y2="211" stroke="#C6D5DE" stroke-width="3" stroke-linecap="round" opacity="0.35"/><line x1="695" y1="39" x2="683" y2="69" stroke="#C6D5DE" stroke-width="3" stroke-linecap="round" opacity="0.35"/><line x1="418" y1="495" x2="405" y2="525" stroke="#C6D5DE" stroke-width="3" stroke-linecap="round" opacity="0.35"/><line x1="1234" y1="354" x2="1222" y2="384" stroke="#C6D5DE" stroke-width="3" stroke-linecap="round" opacity="0.35"/><line x1="852" y1="311" x2="840" y2="341" stroke="#C6D5DE" stroke-width="3" stroke-linecap="round" opacity="0.35"/><line x1="125" y1="-19" x2="113" y2="11" stroke="#C6D5DE" stroke-width="3" stroke-linecap="round" opacity="0.35"/><line x1="-36" y1="506" x2="-49" y2="536" stroke="#C6D5DE" stroke-width="3" stroke-linecap="round" opacity="0.35"/><line x1="865" y1="538" x2="853" y2="568" stroke="#C6D5DE" stroke-width="3" stroke-linecap="round" opacity="0.35"/><line x1="-32" y1="342" x2="-45" y2="372" stroke="#C6D5DE" stroke-width="3" stroke-linecap="round" opacity="0.35"/><line x1="577" y1="398" x2="564" y2="428" stroke="#C6D5DE" stroke-width="3" stroke-linecap="round" opacity="0.35"/><line x1="361" y1="560" x2="348" y2="590" stroke="#C6D5DE" stroke-width="3" stroke-linecap="round" opacity="0.35"/><line x1="39" y1="288" x2="27" y2="318" stroke="#C6D5DE" stroke-width="3" stroke-linecap="round" opacity="0.35"/><line x1="913" y1="500" x2="900" y2="530" stroke="#C6D5DE" stroke-width="3" stroke-linecap="round" opacity="0.35"/><line x1="913" y1="382" x2="900" y2="412" stroke="#C6D5DE" stroke-width="3" stroke-linecap="round" opacity="0.35"/><line x1="987" y1="509" x2="975" y2="539" stroke="#C6D5DE" stroke-width="3" stroke-linecap="round" opacity="0.35"/><line x1="404" y1="371" x2="392" y2="401" stroke="#C6D5DE" stroke-width="3" stroke-linecap="round" opacity="0.35"/><line x1="1129" y1="483" x2="1117" y2="513" stroke="#C6D5DE" stroke-width="3" stroke-linecap="round" opacity="0.35"/><line x1="491" y1="434" x2="478" y2="464" stroke="#C6D5DE" stroke-width="3" stroke-linecap="round" opacity="0.35"/><line x1="1080" y1="304" x2="1067" y2="334" stroke="#C6D5DE" stroke-width="3" stroke-linecap="round" opacity="0.35"/><line x1="765" y1="189" x2="752" y2="219" stroke="#C6D5DE" stroke-width="3" stroke-linecap="round" opacity="0.35"/><line x1="709" y1="325" x2="697" y2="355" stroke="#C6D5DE" stroke-width="3" stroke-linecap="round" opacity="0.35"/><line x1="46" y1="344" x2="33" y2="374" stroke="#C6D5DE" stroke-width="3" stroke-linecap="round" opacity="0.35"/><line x1="1251" y1="488" x2="1239" y2="518" stroke="#C6D5DE" stroke-width="3" stroke-linecap="round" opacity="0.35"/><line x1="901" y1="193" x2="889" y2="223" stroke="#C6D5DE" stroke-width="3" stroke-linecap="round" opacity="0.35"/><line x1="910" y1="309" x2="898" y2="339" stroke="#C6D5DE" stroke-width="3" stroke-linecap="round" opacity="0.35"/><line x1="521" y1="463" x2="509" y2="493" stroke="#C6D5DE" stroke-width="3" stroke-linecap="round" opacity="0.35"/><line x1="51" y1="410" x2="38" y2="440" stroke="#C6D5DE" stroke-width="3" stroke-linecap="round" opacity="0.35"/><line x1="-21" y1="321" x2="-33" y2="351" stroke="#C6D5DE" stroke-width="3" stroke-linecap="round" opacity="0.35"/><line x1="575" y1="98" x2="562" y2="128" stroke="#C6D5DE" stroke-width="3" stroke-linecap="round" opacity="0.35"/><line x1="862" y1="258" x2="849" y2="288" stroke="#C6D5DE" stroke-width="3" stroke-linecap="round" opacity="0.35"/><line x1="751" y1="512" x2="739" y2="542" stroke="#C6D5DE" stroke-width="3" stroke-linecap="round" opacity="0.35"/><line x1="278" y1="-33" x2="265" y2="-3" stroke="#C6D5DE" stroke-width="3" stroke-linecap="round" opacity="0.35"/><line x1="337" y1="367" x2="325" y2="397" stroke="#C6D5DE" stroke-width="3" stroke-linecap="round" opacity="0.35"/><line x1="207" y1="62" x2="195" y2="92" stroke="#C6D5DE" stroke-width="3" stroke-linecap="round" opacity="0.35"/><line x1="1136" y1="356" x2="1123" y2="386" stroke="#C6D5DE" stroke-width="3" stroke-linecap="round" opacity="0.35"/><line x1="523" y1="495" x2="511" y2="525" stroke="#C6D5DE" stroke-width="3" stroke-linecap="round" opacity="0.35"/><line x1="372" y1="360" x2="359" y2="390" stroke="#C6D5DE" stroke-width="3" stroke-linecap="round" opacity="0.35"/><line x1="202" y1="219" x2="189" y2="249" stroke="#C6D5DE" stroke-width="3" stroke-linecap="round" opacity="0.35"/><line x1="1004" y1="509" x2="991" y2="539" stroke="#C6D5DE" stroke-width="3" stroke-linecap="round" opacity="0.35"/><line x1="1102" y1="191" x2="1089" y2="221" stroke="#C6D5DE" stroke-width="3" stroke-linecap="round" opacity="0.35"/><line x1="710" y1="150" x2="697" y2="180" stroke="#C6D5DE" stroke-width="3" stroke-linecap="round" opacity="0.35"/><line x1="120" y1="258" x2="107" y2="288" stroke="#C6D5DE" stroke-width="3" stroke-linecap="round" opacity="0.35"/><line x1="1045" y1="469" x2="1032" y2="499" stroke="#C6D5DE" stroke-width="3" stroke-linecap="round" opacity="0.35"/><line x1="879" y1="530" x2="866" y2="560" stroke="#C6D5DE" stroke-width="3" stroke-linecap="round" opacity="0.35"/><line x1="305" y1="61" x2="293" y2="91" stroke="#C6D5DE" stroke-width="3" stroke-linecap="round" opacity="0.35"/><line x1="535" y1="125" x2="522" y2="155" stroke="#C6D5DE" stroke-width="3" stroke-linecap="round" opacity="0.35"/><line x1="223" y1="208" x2="210" y2="238" stroke="#C6D5DE" stroke-width="3" stroke-linecap="round" opacity="0.35"/><line x1="766" y1="256" x2="753" y2="286" stroke="#C6D5DE" stroke-width="3" stroke-linecap="round" opacity="0.35"/><line x1="356" y1="463" x2="344" y2="493" stroke="#C6D5DE" stroke-width="3" stroke-linecap="round" opacity="0.35"/>
<line x1="1236" y1="231" x2="1218" y2="275" stroke="#DCE7ED" stroke-width="4" stroke-linecap="round" opacity="0.55"/><line x1="39" y1="-21" x2="20" y2="23" stroke="#DCE7ED" stroke-width="4" stroke-linecap="round" opacity="0.55"/><line x1="1092" y1="-15" x2="1074" y2="29" stroke="#DCE7ED" stroke-width="4" stroke-linecap="round" opacity="0.55"/><line x1="875" y1="302" x2="857" y2="346" stroke="#DCE7ED" stroke-width="4" stroke-linecap="round" opacity="0.55"/><line x1="348" y1="435" x2="329" y2="479" stroke="#DCE7ED" stroke-width="4" stroke-linecap="round" opacity="0.55"/><line x1="-35" y1="42" x2="-53" y2="86" stroke="#DCE7ED" stroke-width="4" stroke-linecap="round" opacity="0.55"/><line x1="540" y1="-25" x2="522" y2="19" stroke="#DCE7ED" stroke-width="4" stroke-linecap="round" opacity="0.55"/><line x1="1035" y1="102" x2="1017" y2="146" stroke="#DCE7ED" stroke-width="4" stroke-linecap="round" opacity="0.55"/><line x1="126" y1="-12" x2="107" y2="32" stroke="#DCE7ED" stroke-width="4" stroke-linecap="round" opacity="0.55"/><line x1="771" y1="228" x2="752" y2="272" stroke="#DCE7ED" stroke-width="4" stroke-linecap="round" opacity="0.55"/><line x1="772" y1="353" x2="753" y2="397" stroke="#DCE7ED" stroke-width="4" stroke-linecap="round" opacity="0.55"/><line x1="1006" y1="535" x2="987" y2="579" stroke="#DCE7ED" stroke-width="4" stroke-linecap="round" opacity="0.55"/><line x1="844" y1="80" x2="825" y2="124" stroke="#DCE7ED" stroke-width="4" stroke-linecap="round" opacity="0.55"/><line x1="567" y1="67" x2="549" y2="111" stroke="#DCE7ED" stroke-width="4" stroke-linecap="round" opacity="0.55"/><line x1="-46" y1="243" x2="-64" y2="287" stroke="#DCE7ED" stroke-width="4" stroke-linecap="round" opacity="0.55"/><line x1="883" y1="67" x2="864" y2="111" stroke="#DCE7ED" stroke-width="4" stroke-linecap="round" opacity="0.55"/><line x1="300" y1="167" x2="281" y2="211" stroke="#DCE7ED" stroke-width="4" stroke-linecap="round" opacity="0.55"/><line x1="860" y1="272" x2="842" y2="316" stroke="#DCE7ED" stroke-width="4" stroke-linecap="round" opacity="0.55"/><line x1="751" y1="414" x2="733" y2="458" stroke="#DCE7ED" stroke-width="4" stroke-linecap="round" opacity="0.55"/><line x1="459" y1="435" x2="441" y2="479" stroke="#DCE7ED" stroke-width="4" stroke-linecap="round" opacity="0.55"/><line x1="1136" y1="12" x2="1118" y2="56" stroke="#DCE7ED" stroke-width="4" stroke-linecap="round" opacity="0.55"/><line x1="1171" y1="393" x2="1153" y2="437" stroke="#DCE7ED" stroke-width="4" stroke-linecap="round" opacity="0.55"/><line x1="111" y1="232" x2="93" y2="276" stroke="#DCE7ED" stroke-width="4" stroke-linecap="round" opacity="0.55"/><line x1="766" y1="506" x2="747" y2="550" stroke="#DCE7ED" stroke-width="4" stroke-linecap="round" opacity="0.55"/><line x1="437" y1="301" x2="419" y2="345" stroke="#DCE7ED" stroke-width="4" stroke-linecap="round" opacity="0.55"/><line x1="1101" y1="438" x2="1082" y2="482" stroke="#DCE7ED" stroke-width="4" stroke-linecap="round" opacity="0.55"/><line x1="1186" y1="238" x2="1168" y2="282" stroke="#DCE7ED" stroke-width="4" stroke-linecap="round" opacity="0.55"/><line x1="800" y1="83" x2="781" y2="127" stroke="#DCE7ED" stroke-width="4" stroke-linecap="round" opacity="0.55"/><line x1="893" y1="451" x2="874" y2="495" stroke="#DCE7ED" stroke-width="4" stroke-linecap="round" opacity="0.55"/><line x1="787" y1="391" x2="768" y2="435" stroke="#DCE7ED" stroke-width="4" stroke-linecap="round" opacity="0.55"/><line x1="222" y1="500" x2="203" y2="544" stroke="#DCE7ED" stroke-width="4" stroke-linecap="round" opacity="0.55"/><line x1="1234" y1="546" x2="1216" y2="590" stroke="#DCE7ED" stroke-width="4" stroke-linecap="round" opacity="0.55"/><line x1="649" y1="434" x2="630" y2="478" stroke="#DCE7ED" stroke-width="4" stroke-linecap="round" opacity="0.55"/><line x1="363" y1="506" x2="344" y2="550" stroke="#DCE7ED" stroke-width="4" stroke-linecap="round" opacity="0.55"/><line x1="1070" y1="169" x2="1051" y2="213" stroke="#DCE7ED" stroke-width="4" stroke-linecap="round" opacity="0.55"/><line x1="49" y1="225" x2="31" y2="269" stroke="#DCE7ED" stroke-width="4" stroke-linecap="round" opacity="0.55"/><line x1="666" y1="421" x2="648" y2="465" stroke="#DCE7ED" stroke-width="4" stroke-linecap="round" opacity="0.55"/><line x1="583" y1="-23" x2="565" y2="21" stroke="#DCE7ED" stroke-width="4" stroke-linecap="round" opacity="0.55"/><line x1="1008" y1="-2" x2="990" y2="42" stroke="#DCE7ED" stroke-width="4" stroke-linecap="round" opacity="0.55"/><line x1="996" y1="64" x2="977" y2="108" stroke="#DCE7ED" stroke-width="4" stroke-linecap="round" opacity="0.55"/><line x1="382" y1="433" x2="364" y2="477" stroke="#DCE7ED" stroke-width="4" stroke-linecap="round" opacity="0.55"/><line x1="125" y1="49" x2="107" y2="93" stroke="#DCE7ED" stroke-width="4" stroke-linecap="round" opacity="0.55"/><line x1="622" y1="394" x2="603" y2="438" stroke="#DCE7ED" stroke-width="4" stroke-linecap="round" opacity="0.55"/><line x1="1049" y1="374" x2="1030" y2="418" stroke="#DCE7ED" stroke-width="4" stroke-linecap="round" opacity="0.55"/><line x1="1188" y1="256" x2="1170" y2="300" stroke="#DCE7ED" stroke-width="4" stroke-linecap="round" opacity="0.55"/><line x1="1193" y1="12" x2="1174" y2="56" stroke="#DCE7ED" stroke-width="4" stroke-linecap="round" opacity="0.55"/><line x1="232" y1="276" x2="214" y2="320" stroke="#DCE7ED" stroke-width="4" stroke-linecap="round" opacity="0.55"/><line x1="323" y1="397" x2="305" y2="441" stroke="#DCE7ED" stroke-width="4" stroke-linecap="round" opacity="0.55"/><line x1="783" y1="274" x2="765" y2="318" stroke="#DCE7ED" stroke-width="4" stroke-linecap="round" opacity="0.55"/><line x1="1054" y1="296" x2="1035" y2="340" stroke="#DCE7ED" stroke-width="4" stroke-linecap="round" opacity="0.55"/><line x1="351" y1="189" x2="333" y2="233" stroke="#DCE7ED" stroke-width="4" stroke-linecap="round" opacity="0.55"/><line x1="1056" y1="500" x2="1037" y2="544" stroke="#DCE7ED" stroke-width="4" stroke-linecap="round" opacity="0.55"/><line x1="215" y1="470" x2="196" y2="514" stroke="#DCE7ED" stroke-width="4" stroke-linecap="round" opacity="0.55"/><line x1="1218" y1="275" x2="1200" y2="319" stroke="#DCE7ED" stroke-width="4" stroke-linecap="round" opacity="0.55"/><line x1="696" y1="81" x2="678" y2="125" stroke="#DCE7ED" stroke-width="4" stroke-linecap="round" opacity="0.55"/><line x1="647" y1="262" x2="629" y2="306" stroke="#DCE7ED" stroke-width="4" stroke-linecap="round" opacity="0.55"/><line x1="739" y1="-23" x2="720" y2="21" stroke="#DCE7ED" stroke-width="4" stroke-linecap="round" opacity="0.55"/><line x1="1220" y1="270" x2="1201" y2="314" stroke="#DCE7ED" stroke-width="4" stroke-linecap="round" opacity="0.55"/><line x1="469" y1="441" x2="450" y2="485" stroke="#DCE7ED" stroke-width="4" stroke-linecap="round" opacity="0.55"/><line x1="683" y1="255" x2="665" y2="299" stroke="#DCE7ED" stroke-width="4" stroke-linecap="round" opacity="0.55"/><line x1="852" y1="-0" x2="834" y2="44" stroke="#DCE7ED" stroke-width="4" stroke-linecap="round" opacity="0.55"/><line x1="651" y1="208" x2="633" y2="252" stroke="#DCE7ED" stroke-width="4" stroke-linecap="round" opacity="0.55"/><line x1="1203" y1="514" x2="1185" y2="558" stroke="#DCE7ED" stroke-width="4" stroke-linecap="round" opacity="0.55"/><line x1="295" y1="244" x2="277" y2="288" stroke="#DCE7ED" stroke-width="4" stroke-linecap="round" opacity="0.55"/><line x1="108" y1="220" x2="89" y2="264" stroke="#DCE7ED" stroke-width="4" stroke-linecap="round" opacity="0.55"/><line x1="1017" y1="500" x2="998" y2="544" stroke="#DCE7ED" stroke-width="4" stroke-linecap="round" opacity="0.55"/><line x1="569" y1="150" x2="551" y2="194" stroke="#DCE7ED" stroke-width="4" stroke-linecap="round" opacity="0.55"/><line x1="193" y1="331" x2="174" y2="375" stroke="#DCE7ED" stroke-width="4" stroke-linecap="round" opacity="0.55"/><line x1="1161" y1="38" x2="1143" y2="82" stroke="#DCE7ED" stroke-width="4" stroke-linecap="round" opacity="0.55"/><line x1="969" y1="-26" x2="950" y2="18" stroke="#DCE7ED" stroke-width="4" stroke-linecap="round" opacity="0.55"/><line x1="196" y1="96" x2="178" y2="140" stroke="#DCE7ED" stroke-width="4" stroke-linecap="round" opacity="0.55"/><line x1="847" y1="153" x2="828" y2="197" stroke="#DCE7ED" stroke-width="4" stroke-linecap="round" opacity="0.55"/><line x1="409" y1="332" x2="391" y2="376" stroke="#DCE7ED" stroke-width="4" stroke-linecap="round" opacity="0.55"/><line x1="78" y1="399" x2="60" y2="443" stroke="#DCE7ED" stroke-width="4" stroke-linecap="round" opacity="0.55"/><line x1="102" y1="266" x2="84" y2="310" stroke="#DCE7ED" stroke-width="4" stroke-linecap="round" opacity="0.55"/><line x1="271" y1="79" x2="252" y2="123" stroke="#DCE7ED" stroke-width="4" stroke-linecap="round" opacity="0.55"/><line x1="640" y1="222" x2="622" y2="266" stroke="#DCE7ED" stroke-width="4" stroke-linecap="round" opacity="0.55"/><line x1="436" y1="208" x2="417" y2="252" stroke="#DCE7ED" stroke-width="4" stroke-linecap="round" opacity="0.55"/><line x1="639" y1="56" x2="620" y2="100" stroke="#DCE7ED" stroke-width="4" stroke-linecap="round" opacity="0.55"/><line x1="210" y1="339" x2="191" y2="383" stroke="#DCE7ED" stroke-width="4" stroke-linecap="round" opacity="0.55"/><line x1="783" y1="278" x2="764" y2="322" stroke="#DCE7ED" stroke-width="4" stroke-linecap="round" opacity="0.55"/><line x1="1064" y1="327" x2="1045" y2="371" stroke="#DCE7ED" stroke-width="4" stroke-linecap="round" opacity="0.55"/><line x1="1071" y1="100" x2="1052" y2="144" stroke="#DCE7ED" stroke-width="4" stroke-linecap="round" opacity="0.55"/><line x1="918" y1="446" x2="899" y2="490" stroke="#DCE7ED" stroke-width="4" stroke-linecap="round" opacity="0.55"/><line x1="1132" y1="150" x2="1113" y2="194" stroke="#DCE7ED" stroke-width="4" stroke-linecap="round" opacity="0.55"/><line x1="356" y1="514" x2="337" y2="558" stroke="#DCE7ED" stroke-width="4" stroke-linecap="round" opacity="0.55"/><line x1="228" y1="559" x2="209" y2="603" stroke="#DCE7ED" stroke-width="4" stroke-linecap="round" opacity="0.55"/><line x1="1112" y1="40" x2="1093" y2="84" stroke="#DCE7ED" stroke-width="4" stroke-linecap="round" opacity="0.55"/><line x1="256" y1="396" x2="237" y2="440" stroke="#DCE7ED" stroke-width="4" stroke-linecap="round" opacity="0.55"/><line x1="283" y1="18" x2="264" y2="62" stroke="#DCE7ED" stroke-width="4" stroke-linecap="round" opacity="0.55"/>
<line x1="1038" y1="213" x2="1011" y2="279" stroke="#F0F5F7" stroke-width="5.5" stroke-linecap="round" opacity="0.75"/><line x1="983" y1="36" x2="955" y2="102" stroke="#F0F5F7" stroke-width="5.5" stroke-linecap="round" opacity="0.75"/><line x1="472" y1="371" x2="444" y2="437" stroke="#F0F5F7" stroke-width="5.5" stroke-linecap="round" opacity="0.75"/><line x1="-37" y1="81" x2="-64" y2="147" stroke="#F0F5F7" stroke-width="5.5" stroke-linecap="round" opacity="0.75"/><line x1="841" y1="507" x2="813" y2="573" stroke="#F0F5F7" stroke-width="5.5" stroke-linecap="round" opacity="0.75"/><line x1="1218" y1="29" x2="1191" y2="95" stroke="#F0F5F7" stroke-width="5.5" stroke-linecap="round" opacity="0.75"/><line x1="607" y1="415" x2="580" y2="481" stroke="#F0F5F7" stroke-width="5.5" stroke-linecap="round" opacity="0.75"/><line x1="604" y1="371" x2="576" y2="437" stroke="#F0F5F7" stroke-width="5.5" stroke-linecap="round" opacity="0.75"/><line x1="189" y1="2" x2="162" y2="68" stroke="#F0F5F7" stroke-width="5.5" stroke-linecap="round" opacity="0.75"/><line x1="80" y1="-18" x2="52" y2="48" stroke="#F0F5F7" stroke-width="5.5" stroke-linecap="round" opacity="0.75"/><line x1="668" y1="269" x2="640" y2="335" stroke="#F0F5F7" stroke-width="5.5" stroke-linecap="round" opacity="0.75"/><line x1="691" y1="48" x2="663" y2="114" stroke="#F0F5F7" stroke-width="5.5" stroke-linecap="round" opacity="0.75"/><line x1="184" y1="82" x2="156" y2="148" stroke="#F0F5F7" stroke-width="5.5" stroke-linecap="round" opacity="0.75"/><line x1="1049" y1="554" x2="1021" y2="620" stroke="#F0F5F7" stroke-width="5.5" stroke-linecap="round" opacity="0.75"/><line x1="1163" y1="17" x2="1136" y2="83" stroke="#F0F5F7" stroke-width="5.5" stroke-linecap="round" opacity="0.75"/><line x1="22" y1="531" x2="-6" y2="597" stroke="#F0F5F7" stroke-width="5.5" stroke-linecap="round" opacity="0.75"/><line x1="550" y1="419" x2="522" y2="485" stroke="#F0F5F7" stroke-width="5.5" stroke-linecap="round" opacity="0.75"/><line x1="371" y1="240" x2="344" y2="306" stroke="#F0F5F7" stroke-width="5.5" stroke-linecap="round" opacity="0.75"/><line x1="620" y1="218" x2="592" y2="284" stroke="#F0F5F7" stroke-width="5.5" stroke-linecap="round" opacity="0.75"/><line x1="733" y1="-32" x2="706" y2="34" stroke="#F0F5F7" stroke-width="5.5" stroke-linecap="round" opacity="0.75"/><line x1="865" y1="467" x2="838" y2="533" stroke="#F0F5F7" stroke-width="5.5" stroke-linecap="round" opacity="0.75"/><line x1="179" y1="232" x2="152" y2="298" stroke="#F0F5F7" stroke-width="5.5" stroke-linecap="round" opacity="0.75"/><line x1="916" y1="203" x2="888" y2="269" stroke="#F0F5F7" stroke-width="5.5" stroke-linecap="round" opacity="0.75"/><line x1="198" y1="59" x2="170" y2="125" stroke="#F0F5F7" stroke-width="5.5" stroke-linecap="round" opacity="0.75"/><line x1="617" y1="-31" x2="589" y2="35" stroke="#F0F5F7" stroke-width="5.5" stroke-linecap="round" opacity="0.75"/><line x1="1119" y1="441" x2="1091" y2="507" stroke="#F0F5F7" stroke-width="5.5" stroke-linecap="round" opacity="0.75"/><line x1="870" y1="476" x2="842" y2="542" stroke="#F0F5F7" stroke-width="5.5" stroke-linecap="round" opacity="0.75"/><line x1="771" y1="203" x2="743" y2="269" stroke="#F0F5F7" stroke-width="5.5" stroke-linecap="round" opacity="0.75"/><line x1="731" y1="263" x2="704" y2="329" stroke="#F0F5F7" stroke-width="5.5" stroke-linecap="round" opacity="0.75"/><line x1="1237" y1="443" x2="1209" y2="509" stroke="#F0F5F7" stroke-width="5.5" stroke-linecap="round" opacity="0.75"/><line x1="281" y1="507" x2="253" y2="573" stroke="#F0F5F7" stroke-width="5.5" stroke-linecap="round" opacity="0.75"/><line x1="923" y1="427" x2="895" y2="493" stroke="#F0F5F7" stroke-width="5.5" stroke-linecap="round" opacity="0.75"/><line x1="1015" y1="203" x2="988" y2="269" stroke="#F0F5F7" stroke-width="5.5" stroke-linecap="round" opacity="0.75"/><line x1="1123" y1="488" x2="1096" y2="554" stroke="#F0F5F7" stroke-width="5.5" stroke-linecap="round" opacity="0.75"/><line x1="857" y1="420" x2="829" y2="486" stroke="#F0F5F7" stroke-width="5.5" stroke-linecap="round" opacity="0.75"/><line x1="950" y1="203" x2="922" y2="269" stroke="#F0F5F7" stroke-width="5.5" stroke-linecap="round" opacity="0.75"/><line x1="894" y1="2" x2="866" y2="68" stroke="#F0F5F7" stroke-width="5.5" stroke-linecap="round" opacity="0.75"/><line x1="391" y1="241" x2="363" y2="307" stroke="#F0F5F7" stroke-width="5.5" stroke-linecap="round" opacity="0.75"/><line x1="-46" y1="173" x2="-74" y2="239" stroke="#F0F5F7" stroke-width="5.5" stroke-linecap="round" opacity="0.75"/><line x1="783" y1="334" x2="755" y2="400" stroke="#F0F5F7" stroke-width="5.5" stroke-linecap="round" opacity="0.75"/><line x1="246" y1="527" x2="219" y2="593" stroke="#F0F5F7" stroke-width="5.5" stroke-linecap="round" opacity="0.75"/><line x1="819" y1="163" x2="792" y2="229" stroke="#F0F5F7" stroke-width="5.5" stroke-linecap="round" opacity="0.75"/><line x1="811" y1="302" x2="783" y2="368" stroke="#F0F5F7" stroke-width="5.5" stroke-linecap="round" opacity="0.75"/><line x1="644" y1="194" x2="616" y2="260" stroke="#F0F5F7" stroke-width="5.5" stroke-linecap="round" opacity="0.75"/><line x1="1260" y1="345" x2="1232" y2="411" stroke="#F0F5F7" stroke-width="5.5" stroke-linecap="round" opacity="0.75"/>
<ellipse cx="833" cy="524" rx="9" ry="3" fill="none" stroke="#D6E3EA" stroke-width="2.5" opacity="0.6"/>
<ellipse cx="1157" cy="454" rx="9" ry="3" fill="none" stroke="#D6E3EA" stroke-width="2.5" opacity="0.6"/>
<ellipse cx="734" cy="521" rx="9" ry="3" fill="none" stroke="#D6E3EA" stroke-width="2.5" opacity="0.6"/>
<ellipse cx="318" cy="490" rx="9" ry="3" fill="none" stroke="#D6E3EA" stroke-width="2.5" opacity="0.6"/>
<ellipse cx="79" cy="470" rx="9" ry="3" fill="none" stroke="#D6E3EA" stroke-width="2.5" opacity="0.6"/>
<ellipse cx="456" cy="461" rx="9" ry="3" fill="none" stroke="#D6E3EA" stroke-width="2.5" opacity="0.6"/>
<ellipse cx="311" cy="537" rx="9" ry="3" fill="none" stroke="#D6E3EA" stroke-width="2.5" opacity="0.6"/>
<ellipse cx="658" cy="500" rx="9" ry="3" fill="none" stroke="#D6E3EA" stroke-width="2.5" opacity="0.6"/>
<ellipse cx="1142" cy="505" rx="9" ry="3" fill="none" stroke="#D6E3EA" stroke-width="2.5" opacity="0.6"/>
<ellipse cx="1174" cy="512" rx="9" ry="3" fill="none" stroke="#D6E3EA" stroke-width="2.5" opacity="0.6"/>
<ellipse cx="959" cy="459" rx="9" ry="3" fill="none" stroke="#D6E3EA" stroke-width="2.5" opacity="0.6"/>
<ellipse cx="713" cy="523" rx="9" ry="3" fill="none" stroke="#D6E3EA" stroke-width="2.5" opacity="0.6"/>
<ellipse cx="72" cy="539" rx="9" ry="3" fill="none" stroke="#D6E3EA" stroke-width="2.5" opacity="0.6"/>
<ellipse cx="206" cy="496" rx="9" ry="3" fill="none" stroke="#D6E3EA" stroke-width="2.5" opacity="0.6"/>
<ellipse cx="216" cy="499" rx="9" ry="3" fill="none" stroke="#D6E3EA" stroke-width="2.5" opacity="0.6"/>
<ellipse cx="729" cy="458" rx="9" ry="3" fill="none" stroke="#D6E3EA" stroke-width="2.5" opacity="0.6"/>
<ellipse cx="1117" cy="492" rx="9" ry="3" fill="none" stroke="#D6E3EA" stroke-width="2.5" opacity="0.6"/>
<ellipse cx="631" cy="508" rx="9" ry="3" fill="none" stroke="#D6E3EA" stroke-width="2.5" opacity="0.6"/>
<ellipse cx="444" cy="479" rx="9" ry="3" fill="none" stroke="#D6E3EA" stroke-width="2.5" opacity="0.6"/>
<ellipse cx="780" cy="505" rx="9" ry="3" fill="none" stroke="#D6E3EA" stroke-width="2.5" opacity="0.6"/>
<ellipse cx="349" cy="519" rx="9" ry="3" fill="none" stroke="#D6E3EA" stroke-width="2.5" opacity="0.6"/>
<ellipse cx="363" cy="453" rx="9" ry="3" fill="none" stroke="#D6E3EA" stroke-width="2.5" opacity="0.6"/>
<ellipse cx="304" cy="456" rx="9" ry="3" fill="none" stroke="#D6E3EA" stroke-width="2.5" opacity="0.6"/>
<ellipse cx="202" cy="523" rx="9" ry="3" fill="none" stroke="#D6E3EA" stroke-width="2.5" opacity="0.6"/>
<ellipse cx="472" cy="536" rx="9" ry="3" fill="none" stroke="#D6E3EA" stroke-width="2.5" opacity="0.6"/>
<ellipse cx="888" cy="457" rx="9" ry="3" fill="none" stroke="#D6E3EA" stroke-width="2.5" opacity="0.6"/>
</g>
<rect x="3" y="3" width="1194" height="554" rx="26" ry="26" fill="none" stroke="#C9C1AE" stroke-width="4"/>
</svg>